<svg width="29" height="26" viewBox="0 0 29 26" fill="none" xmlns="http://www.w3.org/2000/svg">
<path fill-rule="evenodd" clip-rule="evenodd" d="M12.2939 5.2179L12.9939 4.45178V9.11389C12.9971 9.82922 13.5781 10.4078 14.2939 10.4078C15.0098 10.4078 15.5908 9.82922 15.594 9.11389L15.5939 4.45178L16.2938 5.16565C16.4116 5.29895 16.5555 5.40637 16.7169 5.48157C16.8783 5.55627 17.0531 5.59778 17.2308 5.60364C17.5903 5.61389 17.9379 5.47473 18.1908 5.21887C18.4364 4.97522 18.5746 4.64319 18.5748 4.297C18.5746 3.95032 18.4363 3.61877 18.1907 3.37512L15.2148 0.401001C14.6967 -0.0877685 13.8871 -0.0877685 13.3689 0.401001L10.3929 3.32385C9.86841 3.84827 9.86841 4.69885 10.3931 5.22375C10.9177 5.74817 11.7684 5.74817 12.293 5.22375L12.2939 5.2179ZM14.2939 13.0109C12.4332 13.0109 10.8318 14.3258 10.4691 16.1505C10.1064 17.9757 11.0835 19.8029 12.8027 20.5143C14.5221 21.2257 16.5045 20.6237 17.5378 19.0763C18.571 17.5289 18.3672 15.4669 17.0509 14.152C16.321 13.423 15.3319 13.0128 14.3002 13.0114L14.2939 13.0109ZM14.2939 18.2111C13.6737 18.2111 13.14 17.7726 13.0194 17.1642C12.8987 16.5558 13.2247 15.9469 13.7979 15.7101C14.3711 15.4728 15.0319 15.674 15.3761 16.1901C15.7202 16.7057 15.652 17.3932 15.2129 17.8312C14.9698 18.0719 14.642 18.2072 14.3 18.2072L14.2939 18.2111ZM5.19397 16.9113C5.19373 17.5314 5.63159 18.0656 6.23987 18.1866C6.84802 18.3077 7.45728 17.9825 7.69482 17.4098C7.9325 16.837 7.73218 16.1759 7.21667 15.8312C6.70105 15.4865 6.01379 15.5538 5.57507 15.9923C5.33435 16.236 5.19946 16.5651 5.19983 16.9073L5.19397 16.9113ZM23.3889 16.9113C23.3893 16.2911 22.9514 15.757 22.3431 15.6359C21.735 15.5148 21.1257 15.84 20.8882 16.4127C20.6505 16.9855 20.8508 17.6466 21.3663 17.9913C21.882 18.3361 22.5692 18.2687 23.0079 17.8302C23.2542 17.5865 23.3927 17.254 23.3929 16.9073L23.3889 16.9113ZM24.689 7.82043H19.489C18.771 7.82043 18.189 8.40247 18.189 9.12024C18.189 9.83801 18.771 10.42 19.489 10.42L24.689 10.4205C25.4069 10.4205 25.9889 11.0021 25.989 11.7203V22.1002C25.989 22.818 25.407 23.4 24.6891 23.4H3.90002C3.18213 23.4 2.6001 22.8185 2.59998 22.1002V11.7091C2.59998 10.9913 3.18201 10.4093 3.8999 10.4093H9.09998C9.81799 10.4093 10.4 9.82727 10.4 9.1095C10.4 8.39172 9.81799 7.80969 9.09998 7.80969L3.90002 7.8092C1.74609 7.8092 0 9.5553 -0.00012207 11.7091L0 22.1002C-0.00012207 24.2535 1.74597 25.9996 3.89978 25.9996L24.694 26.0001C26.8479 25.9996 28.594 24.2535 28.5941 22.0997L28.594 11.7091C28.5941 9.5553 26.848 7.8092 24.6942 7.8092L24.689 7.82043Z" fill="#1AD598"/>
</svg>
