<svg width="30" height="27" viewBox="0 0 30 27" fill="none" xmlns="http://www.w3.org/2000/svg">
<path fill-rule="evenodd" clip-rule="evenodd" d="M7.91299 26.6111C7.59341 26.2883 7.47464 25.8176 7.60293 25.3821H3.43191C1.91397 25.3767 0.686793 24.1443 0.68777 22.6262L0.687892 20.9543C0.687892 20.5129 0.923366 20.1052 1.30569 19.8845C1.68789 19.6638 2.15884 19.6638 2.54104 19.8845C2.92337 20.1052 3.15884 20.5129 3.15884 20.9543V22.6262C3.15945 22.7766 3.28128 22.8987 3.43179 22.8992H7.60281C7.47525 22.4631 7.59439 21.9924 7.91384 21.6697C8.14529 21.4382 8.45913 21.3083 8.78652 21.3083C9.1138 21.3083 9.42764 21.4387 9.65884 21.6702L11.2108 23.2292C11.4584 23.4587 11.6021 23.7791 11.6088 24.1165C11.6154 24.4539 11.4843 24.7795 11.2458 25.0183H11.2459L9.65884 26.6101C9.43142 26.8474 9.11563 26.9792 8.78701 26.9753C8.45864 26.9753 8.14395 26.8445 7.91299 26.6111ZM14.924 24.3621C14.241 24.3596 13.6889 23.8054 13.6889 23.1223C13.6889 22.4392 14.241 21.885 14.924 21.8821H21.424C25.016 21.8821 26.69 20.2009 26.69 16.594V8.75708C26.69 5.14917 25.017 3.46899 21.424 3.46899H8.42398C4.83303 3.46899 3.15994 5.14917 3.15994 8.75708V11.3689C3.15994 11.8103 2.92446 12.218 2.54214 12.4387C2.15994 12.6594 1.68899 12.6594 1.30667 12.4387C0.924464 12.218 0.688991 11.8103 0.688991 11.3689V8.75708C0.688991 3.81909 3.50894 0.986084 8.42398 0.986084H21.424C26.341 0.986084 29.1599 3.81909 29.1599 8.75708V16.594C29.1599 21.532 26.34 24.3621 21.424 24.3621H14.924ZM9.13797 20.4309V18.76C9.13687 18.6096 9.01528 18.488 8.86502 18.4871H4.69302C4.82083 18.9221 4.70169 19.3928 4.38198 19.7146C4.15139 19.948 3.83694 20.0798 3.50869 20.0798C3.18045 20.0798 2.86587 19.9485 2.63504 19.7151L1.048 18.1233C0.97256 18.0466 0.907374 17.9612 0.853908 17.8684L0.847072 17.8562L0.84109 17.8464C0.575831 17.3625 0.66006 16.7615 1.04812 16.3689L2.63516 14.7766C2.86636 14.5442 3.18069 14.4133 3.50857 14.4133C3.83645 14.4133 4.15078 14.5442 4.38211 14.7766C4.7023 15.0994 4.82107 15.571 4.69216 16.0066H8.86514C10.3828 16.0105 11.6106 17.2429 11.609 18.7605L11.6092 20.4314C11.6092 20.8728 11.3737 21.2805 10.9914 21.5012C10.6092 21.7219 10.1382 21.7219 9.75589 21.5012C9.37368 21.2805 9.13821 20.8728 9.13821 20.4314L9.13797 20.4309ZM22.138 15.9387V9.40991C22.138 8.96851 22.3734 8.56079 22.7558 8.34009C23.138 8.11938 23.6089 8.11938 23.9911 8.34009C24.3734 8.56079 24.6089 8.96851 24.6089 9.40991V15.9387C24.6089 16.3801 24.3734 16.7878 23.9911 17.0085C23.6089 17.2292 23.138 17.2292 22.7556 17.0085C22.3734 16.7878 22.138 16.3801 22.138 15.9387ZM10.438 12.6746C10.4494 10.2004 12.4624 8.20288 14.9367 8.21069C17.4109 8.21802 19.4116 10.2283 19.4079 12.7024C19.4041 15.1765 17.3972 17.1804 14.923 17.1804C12.4418 17.1721 10.4359 15.1565 10.4389 12.6755L10.438 12.6746ZM12.909 12.6746C12.914 13.7859 13.8183 14.6833 14.93 14.6804C16.0417 14.677 16.9406 13.7742 16.939 12.6624C16.9374 11.5505 16.0357 10.6501 14.924 10.6501C13.8091 10.6536 12.9079 11.5598 12.9101 12.6746H12.909Z" fill="#0090FF"/>
</svg>
