<svg width="26" height="26" viewBox="0 0 26 26" fill="none" xmlns="http://www.w3.org/2000/svg">
<path fill-rule="evenodd" clip-rule="evenodd" d="M3.21985 25.774C1.66357 25.5646 0.439697 24.3405 0.230835 22.7838C-0.0665283 21.0397 -0.0665283 19.2574 0.230835 17.5128C0.44043 15.9567 1.66394 14.7325 3.21985 14.5226C4.96423 14.2252 6.74646 14.2252 8.49084 14.5226C10.0469 14.7321 11.2706 15.9567 11.4799 17.5128C11.7791 19.2574 11.7791 21.0397 11.4799 22.7843C11.271 24.3409 10.047 25.5651 8.49084 25.7745C6.74658 26.0739 4.96411 26.0739 3.21985 25.774ZM19.7198 24.4821V21.6642H16.8999C16.5515 21.6642 16.2296 21.4781 16.0554 21.1769C15.8812 20.8751 15.8812 20.5031 16.0554 20.2013C16.2296 19.9 16.5515 19.714 16.8999 19.714H19.7148V16.9C19.7319 16.3741 20.1632 15.9567 20.6893 15.9567C21.2155 15.9567 21.6467 16.3741 21.6638 16.9V19.7159H24.4808C24.8292 19.7159 25.1511 19.902 25.3253 20.2032C25.4995 20.505 25.4995 20.8771 25.3253 21.1788C25.1511 21.4801 24.8292 21.6661 24.4808 21.6661H21.6638V24.484C21.6467 25.0099 21.2155 25.4274 20.6893 25.4274C20.1632 25.4274 19.7319 25.0099 19.7148 24.484L19.7198 24.4821ZM17.5199 11.4752C15.9641 11.2643 14.7406 10.0406 14.5299 8.48499C14.2325 6.74085 14.2325 4.95862 14.5299 3.21399C14.7401 1.65784 15.9639 0.433716 17.5199 0.222778C19.2639 -0.074585 21.0459 -0.074585 22.7899 0.222778C24.3463 0.432739 25.5703 1.65735 25.7799 3.21399C26.0775 4.95862 26.0775 6.74085 25.7799 8.48547C25.5693 10.0411 24.3457 11.2648 22.7899 11.4752C21.046 11.775 19.2638 11.775 17.5199 11.4752ZM3.21985 11.4752C1.66406 11.2648 0.440674 10.0406 0.230835 8.48499C-0.0665283 6.74084 -0.0665283 4.95862 0.230835 3.21399C0.439941 1.65784 1.66357 0.433228 3.21985 0.222778C4.96423 -0.074585 6.74646 -0.074585 8.49084 0.222778C10.0471 0.433228 11.2708 1.65735 11.4799 3.21399C11.7791 4.95862 11.7791 6.74084 11.4799 8.48547C11.2701 10.0411 10.0466 11.2653 8.49084 11.4752C6.74658 11.7745 4.96411 11.7745 3.21985 11.4752Z" fill="#895BF1"/>
</svg>
