<svg width="25" height="26" viewBox="0 0 25 26" fill="none" xmlns="http://www.w3.org/2000/svg">
<path fill-rule="evenodd" clip-rule="evenodd" d="M9.83496 7.79321H17.635C18.353 7.79321 18.9351 7.21118 18.9351 6.49341C18.9351 5.77563 18.353 5.1936 17.635 5.1936L9.83496 5.19312C9.11694 5.1936 8.53491 5.77563 8.53491 6.49341C8.53491 7.21118 9.11694 7.79321 9.83496 7.79321ZM7.23499 12.9934H17.635C18.353 12.9934 18.9351 12.4114 18.9351 11.6936C18.9351 10.9758 18.353 10.3938 17.635 10.3938L7.23499 10.3933C6.51697 10.3938 5.93494 10.9758 5.93494 11.6936C5.93494 12.4114 6.51697 12.9934 7.23499 12.9934ZM7.23499 18.1936H17.635C18.353 18.1936 18.9351 17.6116 18.9351 16.8938C18.9351 16.176 18.353 15.594 17.635 15.594L7.23499 15.5935C6.51697 15.594 5.93494 16.176 5.93494 16.8938C5.93494 17.6116 6.51697 18.1936 7.23499 18.1936ZM22.835 0.00366211H2.04102C1.32312 0.00366211 0.741089 0.585205 0.740967 1.30347V24.6907C0.741333 25.1829 1.01941 25.6326 1.45947 25.8528C1.89954 26.073 2.42615 26.0256 2.82007 25.7307L5.50989 23.7156L8.18689 25.7307C8.64917 26.0774 9.28467 26.0774 9.74695 25.7307L12.4369 23.7156L15.1268 25.7307C15.5891 26.0774 16.2246 26.0774 16.6869 25.7307L19.3639 23.7156L22.0538 25.7307C22.4478 26.0256 22.9744 26.073 23.4144 25.8528C23.8545 25.6326 24.1324 25.1829 24.1328 24.6907V1.30005C24.1328 0.582275 23.5508 0.000244141 22.8329 0.000244141L22.835 0.00366211ZM21.5349 22.0906L20.1439 21.0515C19.6816 20.7048 19.0461 20.7048 18.5839 21.0515L15.9069 23.0647L13.2169 21.0515C12.7546 20.7048 12.1191 20.7048 11.6569 21.0515L8.96692 23.0647L6.28992 21.0515C5.82764 20.7048 5.19214 20.7048 4.72986 21.0515L3.33887 22.0906V2.60034H21.5338L21.5349 22.0906Z" fill="#F9AF1A"/>
</svg>
