<svg width="28" height="28" viewBox="0 0 28 28" fill="none" xmlns="http://www.w3.org/2000/svg">
<rect width="28" height="28" rx="14" fill="#4FAF5A"/>
<mask id="mask0_57_645" style="mask-type:alpha" maskUnits="userSpaceOnUse" x="4" y="4" width="20" height="20">
<rect x="4" y="4" width="20" height="20" fill="#D9D9D9"/>
</mask>
<g mask="url(#mask0_57_645)">
<path d="M13.166 14.8333H8.99935C8.76324 14.8333 8.56532 14.7535 8.4056 14.5938C8.24588 14.434 8.16602 14.2361 8.16602 14C8.16602 13.7639 8.24588 13.566 8.4056 13.4063C8.56532 13.2465 8.76324 13.1667 8.99935 13.1667H13.166V9.00001C13.166 8.7639 13.2459 8.56598 13.4056 8.40626C13.5653 8.24654 13.7632 8.16668 13.9993 8.16668C14.2355 8.16668 14.4334 8.24654 14.5931 8.40626C14.7528 8.56598 14.8327 8.7639 14.8327 9.00001V13.1667H18.9994C19.2355 13.1667 19.4334 13.2465 19.5931 13.4063C19.7528 13.566 19.8327 13.7639 19.8327 14C19.8327 14.2361 19.7528 14.434 19.5931 14.5938C19.4334 14.7535 19.2355 14.8333 18.9994 14.8333H14.8327V19C14.8327 19.2361 14.7528 19.434 14.5931 19.5938C14.4334 19.7535 14.2355 19.8333 13.9993 19.8333C13.7632 19.8333 13.5653 19.7535 13.4056 19.5938C13.2459 19.434 13.166 19.2361 13.166 19V14.8333Z" fill="white"/>
</g>
</svg>
