<svg width="44" height="44" viewBox="0 0 44 44" fill="none" xmlns="http://www.w3.org/2000/svg">
<rect width="44" height="44" rx="22" fill="#4FAF5A"/>
<path d="M21.1309 22.295C21.0921 22.2563 21.0613 22.2103 21.0403 22.1597C21.0193 22.1091 21.0085 22.0548 21.0085 22C21.0085 21.9452 21.0193 21.8909 21.0403 21.8403C21.0613 21.7897 21.0921 21.7437 21.1309 21.705L24.9526 17.8842C25.1871 17.6498 25.3188 17.3319 25.3189 17.0003C25.319 16.6688 25.1874 16.3508 24.953 16.1163C24.7186 15.8818 24.4007 15.75 24.0691 15.7499C23.7376 15.7498 23.4196 15.8815 23.1851 16.1158L19.3634 19.9375C18.8174 20.485 18.5107 21.2268 18.5107 22C18.5107 22.7733 18.8174 23.515 19.3634 24.0625L23.1851 27.8842C23.4196 28.1186 23.7376 28.2502 24.0691 28.2501C24.4007 28.25 24.7186 28.1183 24.953 27.8838C25.1874 27.6493 25.319 27.3313 25.3189 26.9997C25.3188 26.6682 25.1871 26.3502 24.9526 26.1158L21.1309 22.295Z" fill="white"/>
</svg>
