<svg width="31" height="31" viewBox="0 0 31 31" fill="none" xmlns="http://www.w3.org/2000/svg">
<circle cx="15.5" cy="15.5" r="15.5" fill="#F5F5F5"/>
<path d="M18.4427 6.13508C18.7823 5.96528 19.1952 6.10293 19.365 6.44254L21.3828 10.478C22.6231 10.5733 23.4015 10.8166 23.9037 11.4378C24.3028 11.9315 24.432 12.5457 24.3845 13.3958H7.6158C7.56833 12.5457 7.69751 11.9315 8.09662 11.4378C8.59882 10.8166 9.37715 10.5733 10.6175 10.478L12.6352 6.44254C12.805 6.10293 13.218 5.96528 13.5576 6.13508C13.8972 6.30489 14.0348 6.71785 13.865 7.05746L12.183 10.4215C12.626 10.4167 13.1093 10.4167 13.6369 10.4167H18.3634C18.891 10.4167 19.3743 10.4167 19.8172 10.4215L18.1352 7.05746C17.9654 6.71785 18.1031 6.30489 18.4427 6.13508Z" fill="#4FAF5A"/>
<path fill-rule="evenodd" clip-rule="evenodd" d="M8.259 17.0691C8.06925 16.1836 7.90684 15.4256 7.7915 14.7708H24.2088C24.0935 15.4256 23.9311 16.1835 23.7413 17.069L23.3484 18.9024C22.9021 20.9856 22.6789 22.0272 21.9225 22.6386C21.1662 23.25 20.101 23.25 17.9705 23.25H14.0298C11.8993 23.25 10.8341 23.25 10.0778 22.6386C9.32145 22.0272 9.09825 20.9856 8.65186 18.9024L8.259 17.0691ZM14.1668 16.1458C13.7871 16.1458 13.4793 16.4536 13.4793 16.8333C13.4793 17.213 13.7871 17.5208 14.1668 17.5208H17.8335C18.2132 17.5208 18.521 17.213 18.521 16.8333C18.521 16.4536 18.2132 16.1458 17.8335 16.1458H14.1668Z" fill="#4FAF5A"/>
<path d="M18.4427 6.13508C18.7823 5.96528 19.1952 6.10293 19.365 6.44254L21.3828 10.478C22.6231 10.5733 23.4015 10.8166 23.9037 11.4378C24.3028 11.9315 24.432 12.5457 24.3845 13.3958H7.6158C7.56833 12.5457 7.69751 11.9315 8.09662 11.4378C8.59882 10.8166 9.37715 10.5733 10.6175 10.478L12.6352 6.44254C12.805 6.10293 13.218 5.96528 13.5576 6.13508C13.8972 6.30489 14.0348 6.71785 13.865 7.05746L12.183 10.4215C12.626 10.4167 13.1093 10.4167 13.6369 10.4167H18.3634C18.891 10.4167 19.3743 10.4167 19.8172 10.4215L18.1352 7.05746C17.9654 6.71785 18.1031 6.30489 18.4427 6.13508Z" stroke="#4FAF5A"/>
<path fill-rule="evenodd" clip-rule="evenodd" d="M8.259 17.0691C8.06925 16.1836 7.90684 15.4256 7.7915 14.7708H24.2088C24.0935 15.4256 23.9311 16.1835 23.7413 17.069L23.3484 18.9024C22.9021 20.9856 22.6789 22.0272 21.9225 22.6386C21.1662 23.25 20.101 23.25 17.9705 23.25H14.0298C11.8993 23.25 10.8341 23.25 10.0778 22.6386C9.32145 22.0272 9.09825 20.9856 8.65186 18.9024L8.259 17.0691ZM14.1668 16.1458C13.7871 16.1458 13.4793 16.4536 13.4793 16.8333C13.4793 17.213 13.7871 17.5208 14.1668 17.5208H17.8335C18.2132 17.5208 18.521 17.213 18.521 16.8333C18.521 16.4536 18.2132 16.1458 17.8335 16.1458H14.1668Z" stroke="#4FAF5A"/>
</svg>
