<svg width="48" height="49" viewBox="0 0 48 49" fill="none" xmlns="http://www.w3.org/2000/svg">
<rect y="0.5" width="48" height="48" rx="24" fill="#EEFDF0"/>
<mask id="mask0_77_766" style="mask-type:alpha" maskUnits="userSpaceOnUse" x="12" y="12" width="24" height="25">
<rect x="12" y="12.5" width="24" height="24" fill="#D9D9D9"/>
</mask>
<g mask="url(#mask0_77_766)">
<path d="M24.9993 24.1V20.5C24.9993 20.2167 24.9034 19.9792 24.7118 19.7875C24.5201 19.5958 24.2826 19.5 23.9993 19.5C23.7159 19.5 23.4784 19.5958 23.2868 19.7875C23.0951 19.9792 22.9993 20.2167 22.9993 20.5V24.475C22.9993 24.6083 23.0243 24.7375 23.0743 24.8625C23.1243 24.9875 23.1993 25.1 23.2993 25.2L26.5993 28.5C26.7826 28.6833 27.0159 28.775 27.2993 28.775C27.5826 28.775 27.8159 28.6833 27.9993 28.5C28.1826 28.3167 28.2743 28.0833 28.2743 27.8C28.2743 27.5167 28.1826 27.2833 27.9993 27.1L24.9993 24.1ZM23.9993 34.5C22.6159 34.5 21.3159 34.2375 20.0993 33.7125C18.8826 33.1875 17.8243 32.475 16.9243 31.575C16.0243 30.675 15.3118 29.6167 14.7868 28.4C14.2618 27.1833 13.9993 25.8833 13.9993 24.5C13.9993 23.1167 14.2618 21.8167 14.7868 20.6C15.3118 19.3833 16.0243 18.325 16.9243 17.425C17.8243 16.525 18.8826 15.8125 20.0993 15.2875C21.3159 14.7625 22.6159 14.5 23.9993 14.5C25.3826 14.5 26.6826 14.7625 27.8993 15.2875C29.1159 15.8125 30.1743 16.525 31.0743 17.425C31.9743 18.325 32.6868 19.3833 33.2118 20.6C33.7368 21.8167 33.9993 23.1167 33.9993 24.5C33.9993 25.8833 33.7368 27.1833 33.2118 28.4C32.6868 29.6167 31.9743 30.675 31.0743 31.575C30.1743 32.475 29.1159 33.1875 27.8993 33.7125C26.6826 34.2375 25.3826 34.5 23.9993 34.5Z" fill="#4FAF5A"/>
</g>
</svg>
