<svg width="46" height="46" viewBox="0 0 46 46" fill="none" xmlns="http://www.w3.org/2000/svg">
<circle cx="23" cy="23" r="20.5" fill="#F5F5F5" stroke="white" stroke-width="5"/>
<path d="M27.5 20.1361C25.682 20.7421 23.2579 18.318 23.8639 16.5M24.6109 15.7531L20.694 19.6699C18.9912 21.3727 17.7832 23.5063 17.1992 25.8425L17.0099 26.5995C16.9509 26.8354 17.1646 27.0491 17.4005 26.9901L18.1575 26.8008C20.4937 26.2168 22.6273 25.0088 24.3301 23.306L28.2469 19.3891C28.7291 18.907 29 18.253 29 17.5711C29 16.1511 27.8489 15 26.4289 15C25.747 15 25.093 15.2709 24.6109 15.7531Z" stroke="#363853" stroke-width="1.5"/>
<path d="M30 31H16" stroke="#363853" stroke-width="1.5" stroke-linecap="round" stroke-linejoin="round"/>
</svg>
