<svg width="48" height="48" viewBox="0 0 48 48" fill="none" xmlns="http://www.w3.org/2000/svg">
<rect width="48" height="48" rx="24" fill="#EEFDF0"/>
<g clip-path="url(#clip0_77_758)">
<path d="M24.0001 14.0352C21.7951 14.0376 19.681 14.9146 18.1217 16.4737C16.5624 18.0328 15.6853 20.1468 15.6826 22.3518C15.6826 24.4935 17.341 27.8452 20.6118 32.3135C21.0012 32.8469 21.511 33.2809 22.0998 33.5801C22.6886 33.8793 23.3397 34.0352 24.0001 34.0352C24.6606 34.0352 25.3117 33.8793 25.9004 33.5801C26.4892 33.2809 26.9991 32.8469 27.3885 32.3135C30.6593 27.8452 32.3176 24.4935 32.3176 22.3518C32.315 20.1468 31.4378 18.0328 29.8785 16.4737C28.3192 14.9146 26.2052 14.0376 24.0001 14.0352ZM24.0001 25.6668C23.3408 25.6668 22.6964 25.4713 22.1482 25.1051C21.6001 24.7388 21.1728 24.2182 20.9205 23.6091C20.6682 23 20.6022 22.3298 20.7308 21.6832C20.8595 21.0366 21.1769 20.4426 21.6431 19.9765C22.1093 19.5103 22.7032 19.1928 23.3498 19.0642C23.9964 18.9356 24.6666 19.0016 25.2757 19.2539C25.8848 19.5062 26.4054 19.9334 26.7717 20.4816C27.138 21.0298 27.3335 21.6742 27.3335 22.3335C27.3335 23.2175 26.9823 24.0654 26.3571 24.6905C25.732 25.3156 24.8842 25.6668 24.0001 25.6668Z" fill="#4FAF5A"/>
</g>
<defs>
<clipPath id="clip0_77_758">
<rect width="20" height="20" fill="white" transform="translate(14 14)"/>
</clipPath>
</defs>
</svg>
