<svg width="16" height="17" viewBox="0 0 16 17" fill="none" xmlns="http://www.w3.org/2000/svg">
<g clip-path="url(#clip0_16_670)">
<path d="M7.99995 0.528C6.23591 0.529941 4.54467 1.23152 3.29724 2.47882C2.04981 3.72612 1.34806 5.41729 1.34595 7.18133C1.34595 8.89467 2.67261 11.576 5.28928 15.1507C5.60079 15.5774 6.00865 15.9246 6.47968 16.1639C6.95071 16.4033 7.4716 16.528 7.99995 16.528C8.5283 16.528 9.04918 16.4033 9.52021 16.1639C9.99124 15.9246 10.3991 15.5774 10.7106 15.1507C13.3273 11.576 14.6539 8.89467 14.6539 7.18133C14.6518 5.41729 13.9501 3.72612 12.7027 2.47882C11.4552 1.23152 9.76399 0.529941 7.99995 0.528ZM7.99995 9.83333C7.47253 9.83333 6.95696 9.67694 6.51843 9.38392C6.0799 9.0909 5.7381 8.67443 5.53627 8.18716C5.33443 7.69989 5.28163 7.16371 5.38452 6.64643C5.48741 6.12914 5.74139 5.65399 6.11433 5.28105C6.48727 4.90811 6.96242 4.65413 7.47971 4.55124C7.99699 4.44835 8.53317 4.50115 9.02044 4.70299C9.50771 4.90482 9.92418 5.24662 10.2172 5.68515C10.5102 6.12368 10.6666 6.63925 10.6666 7.16667C10.6666 7.87391 10.3857 8.55219 9.88557 9.05229C9.38547 9.55238 8.70719 9.83333 7.99995 9.83333Z" fill="#4FAF5A"/>
</g>
<defs>
<clipPath id="clip0_16_670">
<rect width="16" height="16" fill="white" transform="translate(0 0.5)"/>
</clipPath>
</defs>
</svg>
