<svg width="32" height="32" viewBox="0 0 32 32" fill="none" xmlns="http://www.w3.org/2000/svg">
<rect width="32" height="32" rx="16" fill="#4FAF5A"/>
<path d="M13.5679 21.4946C14.1286 22.2074 15.0095 22.6667 16 22.6667C16.9906 22.6667 17.8714 22.2074 18.4321 21.4946C16.8176 21.7133 15.1824 21.7133 13.5679 21.4946Z" fill="white"/>
<path d="M20.4994 14V14.4694C20.4994 15.0327 20.6602 15.5835 20.9615 16.0522L21.6998 17.2008C22.3741 18.2499 21.8593 19.676 20.6864 20.0077C17.6182 20.8756 14.3818 20.8756 11.3136 20.0077C10.1407 19.676 9.62588 18.2499 10.3002 17.2008L11.0385 16.0522C11.3398 15.5835 11.5006 15.0327 11.5006 14.4694V14C11.5006 11.4227 13.515 9.33334 16 9.33334C18.485 9.33334 20.4994 11.4227 20.4994 14Z" fill="white"/>
</svg>
