<svg width="28" height="28" viewBox="0 0 28 28" fill="none" xmlns="http://www.w3.org/2000/svg">
<rect width="28" height="28" rx="14" fill="#EEFDF0"/>
<mask id="mask0_57_640" style="mask-type:alpha" maskUnits="userSpaceOnUse" x="4" y="4" width="20" height="20">
<rect x="4" y="4" width="20" height="20" fill="#D9D9D9"/>
</mask>
<g mask="url(#mask0_57_640)">
<path d="M9.83333 14.8333C9.59722 14.8333 9.39931 14.7535 9.23958 14.5938C9.07986 14.434 9 14.2361 9 14C9 13.7639 9.07986 13.566 9.23958 13.4063C9.39931 13.2465 9.59722 13.1667 9.83333 13.1667H18.1667C18.4028 13.1667 18.6007 13.2465 18.7604 13.4063C18.9201 13.566 19 13.7639 19 14C19 14.2361 18.9201 14.434 18.7604 14.5938C18.6007 14.7535 18.4028 14.8333 18.1667 14.8333H9.83333Z" fill="#4FAF5A"/>
</g>
</svg>
