<svg width="24" height="25" viewBox="0 0 24 25" fill="none" xmlns="http://www.w3.org/2000/svg">
<rect width="23.9999" height="24.1917" rx="12" fill="#EEFDF0"/>
<ellipse cx="12.6001" cy="12.0202" rx="7.56007" ry="7.56012" fill="#4FAF5A"/>
<path fill-rule="evenodd" clip-rule="evenodd" d="M12.3716 7.20935C10.3472 7.20935 8.70605 9.04328 8.70605 11.1039C8.70605 13.1485 9.87595 15.3708 11.7013 16.2239C12.1268 16.4228 12.6163 16.4228 13.0419 16.2239C14.8672 15.3708 16.0371 13.1485 16.0371 11.1039C16.0371 9.04329 14.396 7.20935 12.3716 7.20935ZM12.3716 11.7912C12.8777 11.7912 13.2879 11.381 13.2879 10.8749C13.2879 10.3688 12.8777 9.95848 12.3716 9.95848C11.8655 9.95848 11.4552 10.3688 11.4552 10.8749C11.4552 11.381 11.8655 11.7912 12.3716 11.7912Z" fill="white"/>
</svg>
