<svg width="24" height="25" viewBox="0 0 24 25" fill="none" xmlns="http://www.w3.org/2000/svg">
<rect width="23.9999" height="24.1917" rx="12" fill="#EEFDF0"/>
<ellipse cx="12.6001" cy="12.0202" rx="7.56007" ry="7.56012" fill="#4FAF5A"/>
<g clip-path="url(#clip0_131_2233)">
<path d="M10.6465 9.53342C9.71558 9.53342 8.96094 10.2881 8.96094 11.219C8.96094 11.9102 9.37696 12.5042 9.97227 12.7643L9.97227 13.663L14.6918 13.663L14.6918 12.7643C15.2871 12.5042 15.7031 11.9102 15.7031 11.219C15.7031 10.2881 14.9485 9.53342 14.0176 9.53342C13.9331 9.53342 13.8501 9.53964 13.769 9.55163C13.566 8.95294 12.9993 8.5221 12.332 8.5221C11.6647 8.5221 11.0981 8.95294 10.8951 9.55162C10.8139 9.53964 10.7309 9.53342 10.6465 9.53342Z" fill="white"/>
<path d="M14.6912 14.1687L9.97284 14.1687C9.97627 14.6396 10.0004 14.8975 10.1697 15.0668C10.3672 15.2643 10.685 15.2643 11.3207 15.2643L13.3434 15.2643C13.979 15.2643 14.2969 15.2643 14.4943 15.0668C14.6637 14.8975 14.6878 14.6396 14.6912 14.1687Z" fill="white"/>
</g>
<defs>
<clipPath id="clip0_131_2233">
<rect width="8.09063" height="8.09063" fill="white" transform="translate(8.28711 7.84787)"/>
</clipPath>
</defs>
</svg>
